<svg width="144" height="27" viewBox="0 0 144 27" fill="none" xmlns="http://www.w3.org/2000/svg">
<path fill-rule="evenodd" clip-rule="evenodd" d="M33.5958 13.8219H38.4583C40.5259 13.8219 42.9571 13.2425 42.9571 10.481C42.9571 9.07495 42.1629 8.2483 40.6252 7.93426V7.90088C41.9147 7.47035 42.6592 6.65993 42.6592 5.20525C42.6592 3.21976 41.0547 2.27764 38.9051 2.27764H33.5958V13.8219ZM36.6724 8.926H37.6145C38.6731 8.926 39.8806 9.04153 39.8806 10.2987C39.8806 11.4738 38.7065 11.6389 37.5821 11.6389H36.6724V8.926ZM36.6724 4.46071H37.5649C38.59 4.46071 39.5827 4.55999 39.5827 5.61858C39.5827 6.59411 38.5404 6.84224 37.5325 6.84224H36.6724V4.46071Z" fill="#1A171B"/>
<path d="M53.3732 5.2049H50.397V8.8436C50.397 10.6964 49.768 11.5392 48.5443 11.5392C47.7339 11.5392 47.1717 10.9932 47.1717 9.37243V5.2049H44.1945V10.5799C44.1945 12.3658 45.1375 14.0201 47.4856 14.0201C48.842 14.0201 50.0324 13.4751 50.628 12.2342H50.6614V13.8215H53.3732V5.2049Z" fill="#1A171B"/>
<path d="M54.9785 13.8219H62.3876V11.6389H58.3853L62.3218 7.58685V5.20525H55.0616V7.38825H58.9151L54.9785 11.4403V13.8219Z" fill="#1A171B"/>
<path d="M63.7461 13.8219H71.1552V11.6389H67.1529L71.0894 7.58685V5.20525H63.8292V7.38825H67.6826L63.7461 11.4403V13.8219Z" fill="#1A171B"/>
<path fill-rule="evenodd" clip-rule="evenodd" d="M72.9395 13.8219H75.9168V5.20525H72.9395V13.8219ZM75.9168 1.61613H72.9395V3.7992H75.9168V1.61613Z" fill="#1A171B"/>
<path d="M93.2705 2.27735H90.194V8.92571C90.194 10.4473 89.7807 11.7378 88.2095 11.7378C86.6383 11.7378 86.2251 10.4473 86.2251 8.92571V2.27735H83.1486V9.43926C83.1486 12.5978 85.1999 14.0201 88.2095 14.0201C91.2192 14.0201 93.2705 12.5978 93.2705 9.43926V2.27735Z" fill="#1A171B"/>
<path d="M94.8068 13.8219H97.784V10.1832C97.784 8.33038 98.412 7.48755 99.6357 7.48755C100.446 7.48755 101.008 8.03252 101.008 9.65435V13.8219H103.986V8.44689C103.986 6.65994 103.043 5.00672 100.694 5.00672C99.338 5.00672 98.1476 5.55273 97.552 6.79265H97.5186V5.20525H94.8068V13.8219Z" fill="#1A171B"/>
<path fill-rule="evenodd" clip-rule="evenodd" d="M105.816 13.8219H108.794V5.20525H105.816V13.8219ZM108.794 1.61613H105.816V3.7992H108.794V1.61613Z" fill="#1A171B"/>
<path d="M117.708 5.48653C117.03 5.15528 116.237 5.00637 115.343 5.00637C112.499 5.00637 110.332 6.66062 110.332 9.52236C110.332 12.3669 112.499 14.0201 115.343 14.0201C116.137 14.0201 117.03 13.8884 117.774 13.6402L117.708 11.4238C117.212 11.6882 116.534 11.8371 115.856 11.8371C114.566 11.8371 113.408 10.9446 113.408 9.57201C113.408 8.08289 114.401 7.19042 115.691 7.19042C116.402 7.19042 116.948 7.33834 117.493 7.66959L117.708 5.48653Z" fill="#1A171B"/>
<path fill-rule="evenodd" clip-rule="evenodd" d="M127.814 10.3819V9.83589C127.814 7.27197 126.656 5.00686 123.464 5.00686C120.784 5.00686 118.85 6.66006 118.85 9.5056C118.85 12.3501 121.016 14.0206 123.861 14.0206C124.969 14.0206 126.06 13.8555 127.019 13.4746V11.3746C126.127 11.8538 125.2 12.0351 124.391 12.0351C122.935 12.0351 122.025 11.5732 121.86 10.3819H127.814ZM121.827 8.69521C121.893 7.70246 122.406 6.89209 123.481 6.89209C124.671 6.89209 125.134 7.70246 125.134 8.69521H121.827Z" fill="#1A171B"/>
<path d="M129.313 13.8219H132.291V10.1832C132.291 8.33038 132.919 7.48755 133.977 7.48755C134.821 7.48755 135.168 8.2149 135.168 9.19144V13.8219H138.145V10.1832C138.145 8.33038 138.774 7.48755 139.832 7.48755C140.675 7.48755 141.023 8.2149 141.023 9.19144V13.8219H143.999V8.74367C143.999 6.41274 143.438 5.00672 140.957 5.00672C139.733 5.00672 138.592 5.50204 137.897 6.65991C137.434 5.53547 136.425 5.00672 135.201 5.00672C133.845 5.00672 132.654 5.55273 132.059 6.79265H132.026V5.20525H129.313V13.8219Z" fill="#1A171B"/>
<path d="M4.19177 8.82695H0V3.96657C0 3.96657 2.64697 4.1327 4.9394 2.90595C5.64243 2.52911 6.68687 1.77843 6.92189 0.000602722H25.8337V16.3455C25.8337 24.1406 24.7933 26.3844 15.0593 26.3844C5.13085 26.3844 4.18979 24.1426 4.18979 16.3516L4.19177 8.82695Z" fill="#0071B9"/>
<path d="M11.9042 0H18.117V20.171H11.9042V0Z" fill="#1A171B"/>
<path d="M16.9834 0.509022H13.0448V2.02452H16.9834V0.509022Z" fill="white"/>
<path d="M13.0448 10.7022V12.4639H15.7393V12.9025H13.0448V14.733H15.5459C16.7696 14.733 17.0391 14.5679 17.0391 12.71C17.0391 10.8674 16.7696 10.7022 15.5459 10.7022H13.0448Z" fill="white"/>
<path fill-rule="evenodd" clip-rule="evenodd" d="M16.9753 19.1544V16.1528C16.9753 15.2806 16.4688 15.0203 15.9511 15.0203C15.159 15.0203 15.0871 15.5137 15.0374 16.0212H15.0263C14.9929 15.5269 14.7011 15.0467 14.0295 15.0467C13.4298 15.0467 13.0448 15.307 13.0448 16.1002V19.1544H16.9753ZM15.4892 17.563V16.9157C15.4892 16.6736 15.6097 16.6117 15.7748 16.6117C15.9399 16.6117 16.0616 16.6735 16.0616 16.9197V17.563H15.4892ZM14.074 17.563V16.9329C14.074 16.7131 14.1621 16.6381 14.3606 16.6381C14.5258 16.6381 14.6414 16.7131 14.6414 16.9552V17.563H14.074Z" fill="white"/>
<path d="M16.9763 6.14065V2.28722H15.6766V3.75807L14.2453 2.28722H13.0448V6.15586H14.4599V4.61607L16.095 6.14065H16.9763Z" fill="white"/>
<path d="M16.9763 10.3507V6.49719H15.6766V7.9681L14.2453 6.49719H13.0448V10.3648H14.4599V8.82611L16.095 10.3507H16.9763Z" fill="white"/>
</svg>
