<?xml version="1.0" encoding="UTF-8"?>
<svg version="1.1" xmlns="http://www.w3.org/2000/svg" width="256" height="256">
<path d="M0 0 C7.34101063 4.29129686 12.62792486 9.89108429 15.5625 17.9375 C18.1492612 28.51023539 16.30448678 38.36086452 13.4375 48.6015625 C12.43564366 51.84634265 12.43564366 51.84634265 12.5625 54.9375 C13.34560547 54.08478516 13.34560547 54.08478516 14.14453125 53.21484375 C23.08871929 43.83206155 33.79897267 35.99779088 47.06640625 34.87109375 C55.58589626 35.09774685 63.38157787 37.71219441 69.40234375 43.796875 C75.70998581 50.65917679 77.43164542 56.65991002 77.5625 65.9375 C76.89178389 72.85581243 73.46679765 80.03320235 68.5625 84.9375 C69.41521484 85.35708984 69.41521484 85.35708984 70.28515625 85.78515625 C78.7794047 90.1953587 85.3548389 95.67862958 88.5625 104.9375 C90.51561989 112.1303691 89.29700389 119.08724111 86.5625 125.9375 C84.55099576 129.00795735 82.25072033 131.45161883 79.5625 133.9375 C79.07652344 134.42992187 78.59054688 134.92234375 78.08984375 135.4296875 C71.18175738 141.93367968 62.86839284 142.46558707 53.78125 142.30859375 C46.23204428 141.81507527 38.86586526 139.81144481 31.5625 137.9375 C32.41521484 138.72060547 32.41521484 138.72060547 33.28515625 139.51953125 C42.89272735 148.67800052 50.75029587 159.58189729 51.8125 173.125 C51.24572939 181.76825186 48.30509849 189.39300713 42.5625 195.9375 C36.57463709 200.92738575 29.58044386 203.44171672 21.73046875 203.18359375 C13.61910532 202.26284439 7.6917155 199.22780053 1.5625 193.9375 C1.21058594 194.66195312 0.85867187 195.38640625 0.49609375 196.1328125 C-3.45572421 203.87135942 -7.11394945 208.52628911 -14.6875 212.75 C-23.26197235 215.46524958 -31.18376662 215.81768807 -39.4375 211.9375 C-46.95454572 207.39370363 -52.29631198 201.61228738 -54.6875 193.0625 C-55.6701679 188.40873317 -56.06870191 183.67364386 -56.4375 178.9375 C-57.2550507 181.47763909 -58.06665186 184.01943231 -58.875 186.5625 C-59.10509766 187.27535156 -59.33519531 187.98820313 -59.57226562 188.72265625 C-61.98234045 196.33709555 -62.61939303 203.35059839 -62.625 211.3125 C-62.63724609 212.22 -62.64949219 213.1275 -62.66210938 214.0625 C-62.67119792 218.26746818 -62.53670288 222.09493207 -61.42578125 226.1640625 C-60.40588861 230.05819803 -59.89743302 232.94384678 -60.4375 236.9375 C-62.6328125 239.44921875 -62.6328125 239.44921875 -65.5625 241.625 C-66.56796875 242.38039062 -67.5734375 243.13578125 -68.609375 243.9140625 C-69.54265625 244.58179688 -70.4759375 245.24953125 -71.4375 245.9375 C-72.37335938 246.66066406 -72.37335938 246.66066406 -73.328125 247.3984375 C-76.41257103 249.68742113 -78.61023101 250.38776694 -82.4375 249.9375 C-90.65432224 236.11829895 -89.42554455 213.95262188 -85.8125 198.8125 C-83.76708845 190.92894332 -80.69146832 183.38908746 -77.4375 175.9375 C-78.16582031 176.09605469 -78.89414063 176.25460938 -79.64453125 176.41796875 C-89.8937141 178.32446011 -98.11675532 176.01400493 -106.75 170.3125 C-112.73217269 165.48074514 -115.42929992 158.9406311 -116.4375 151.4375 C-116.84328516 143.2406398 -114.39143897 136.4395449 -109.4375 129.9375 C-108.57125 128.761875 -108.57125 128.761875 -107.6875 127.5625 C-107.275 127.02625 -106.8625 126.49 -106.4375 125.9375 C-107.241875 125.916875 -108.04625 125.89625 -108.875 125.875 C-115.43159724 124.14957967 -120.59525738 119.64265256 -124.375 114.0625 C-128.25117265 107.10148407 -129.4289288 99.68194532 -127.4375 91.9375 C-124.21147939 83.22322855 -119.3419733 76.52969689 -110.8125 72.5625 C-99.42247465 67.83378912 -88.55062689 70.10075851 -77.0625 73.0625 C-73.57297697 74.05482027 -73.57297697 74.05482027 -70.4375 73.9375 C-71.07816406 73.34324219 -71.71882813 72.74898438 -72.37890625 72.13671875 C-82.4679349 62.46869279 -89.94017643 52.28119916 -90.875 37.9375 C-90.43050047 29.24308916 -86.55883556 21.94198037 -80.546875 15.8203125 C-73.83243976 9.82705734 -67.180721 9.09530596 -58.36328125 9.48046875 C-50.79103925 10.36201334 -45.05317384 13.88339355 -39.4375 18.9375 C-39.32277344 18.20402344 -39.20804687 17.47054688 -39.08984375 16.71484375 C-37.76460738 11.07266976 -34.55078601 6.51590151 -29.921875 3.05859375 C-20.6870294 -2.5444193 -10.23781994 -4.80390013 0 0 Z M-55.4375 172.9375 C-54.4375 175.9375 -54.4375 175.9375 -54.4375 175.9375 Z " fill="#3AB116" transform="translate(147.4375,4.0625)"/>
<path d="M0 0 C7.34101063 4.29129686 12.62792486 9.89108429 15.5625 17.9375 C18.1492612 28.51023539 16.30448678 38.36086452 13.4375 48.6015625 C12.43564366 51.84634265 12.43564366 51.84634265 12.5625 54.9375 C13.34560547 54.08478516 13.34560547 54.08478516 14.14453125 53.21484375 C23.08871929 43.83206155 33.79897267 35.99779088 47.06640625 34.87109375 C55.58589626 35.09774685 63.38157787 37.71219441 69.40234375 43.796875 C75.70998581 50.65917679 77.43164542 56.65991002 77.5625 65.9375 C76.89178389 72.85581243 73.46679765 80.03320235 68.5625 84.9375 C69.41521484 85.35708984 69.41521484 85.35708984 70.28515625 85.78515625 C78.7794047 90.1953587 85.3548389 95.67862958 88.5625 104.9375 C90.51561989 112.1303691 89.29700389 119.08724111 86.5625 125.9375 C84.55099576 129.00795735 82.25072033 131.45161883 79.5625 133.9375 C79.07652344 134.42992187 78.59054688 134.92234375 78.08984375 135.4296875 C71.18175738 141.93367968 62.86839284 142.46558707 53.78125 142.30859375 C46.23204428 141.81507527 38.86586526 139.81144481 31.5625 137.9375 C32.41521484 138.72060547 32.41521484 138.72060547 33.28515625 139.51953125 C42.89272735 148.67800052 50.75029587 159.58189729 51.8125 173.125 C51.24572939 181.76825186 48.30509849 189.39300713 42.5625 195.9375 C36.57463709 200.92738575 29.58044386 203.44171672 21.73046875 203.18359375 C13.61910532 202.26284439 7.6917155 199.22780053 1.5625 193.9375 C1.21058594 194.66195312 0.85867187 195.38640625 0.49609375 196.1328125 C-3.45572421 203.87135942 -7.11394945 208.52628911 -14.6875 212.75 C-23.26197235 215.46524958 -31.18376662 215.81768807 -39.4375 211.9375 C-46.95454572 207.39370363 -52.29631198 201.61228738 -54.6875 193.0625 C-55.6701679 188.40873317 -56.06870191 183.67364386 -56.4375 178.9375 C-57.2550507 181.47763909 -58.06665186 184.01943231 -58.875 186.5625 C-59.10509766 187.27535156 -59.33519531 187.98820313 -59.57226562 188.72265625 C-61.98234045 196.33709555 -62.61939303 203.35059839 -62.625 211.3125 C-62.63724609 212.22 -62.64949219 213.1275 -62.66210938 214.0625 C-62.67119792 218.26746818 -62.53670288 222.09493207 -61.42578125 226.1640625 C-60.40588861 230.05819803 -59.89743302 232.94384678 -60.4375 236.9375 C-62.6328125 239.44921875 -62.6328125 239.44921875 -65.5625 241.625 C-66.56796875 242.38039062 -67.5734375 243.13578125 -68.609375 243.9140625 C-69.54265625 244.58179688 -70.4759375 245.24953125 -71.4375 245.9375 C-72.37335938 246.66066406 -72.37335938 246.66066406 -73.328125 247.3984375 C-76.41257103 249.68742113 -78.61023101 250.38776694 -82.4375 249.9375 C-90.65432224 236.11829895 -89.42554455 213.95262188 -85.8125 198.8125 C-83.76708845 190.92894332 -80.69146832 183.38908746 -77.4375 175.9375 C-78.16582031 176.09605469 -78.89414063 176.25460938 -79.64453125 176.41796875 C-89.8937141 178.32446011 -98.11675532 176.01400493 -106.75 170.3125 C-112.73217269 165.48074514 -115.42929992 158.9406311 -116.4375 151.4375 C-116.84328516 143.2406398 -114.39143897 136.4395449 -109.4375 129.9375 C-108.57125 128.761875 -108.57125 128.761875 -107.6875 127.5625 C-107.275 127.02625 -106.8625 126.49 -106.4375 125.9375 C-107.241875 125.916875 -108.04625 125.89625 -108.875 125.875 C-115.43159724 124.14957967 -120.59525738 119.64265256 -124.375 114.0625 C-128.25117265 107.10148407 -129.4289288 99.68194532 -127.4375 91.9375 C-124.21147939 83.22322855 -119.3419733 76.52969689 -110.8125 72.5625 C-99.42247465 67.83378912 -88.55062689 70.10075851 -77.0625 73.0625 C-73.57297697 74.05482027 -73.57297697 74.05482027 -70.4375 73.9375 C-71.07816406 73.34324219 -71.71882813 72.74898438 -72.37890625 72.13671875 C-82.4679349 62.46869279 -89.94017643 52.28119916 -90.875 37.9375 C-90.43050047 29.24308916 -86.55883556 21.94198037 -80.546875 15.8203125 C-73.83243976 9.82705734 -67.180721 9.09530596 -58.36328125 9.48046875 C-50.79103925 10.36201334 -45.05317384 13.88339355 -39.4375 18.9375 C-39.32277344 18.20402344 -39.20804687 17.47054688 -39.08984375 16.71484375 C-37.76460738 11.07266976 -34.55078601 6.51590151 -29.921875 3.05859375 C-20.6870294 -2.5444193 -10.23781994 -4.80390013 0 0 Z M-29.4375 12.9375 C-34.38998505 19.43566509 -34.21610957 27.05600085 -34.4375 34.9375 C-35.7575 35.2675 -37.0775 35.5975 -38.4375 35.9375 C-38.78941406 35.21304688 -39.14132813 34.48859375 -39.50390625 33.7421875 C-43.25277458 26.40106152 -46.73632899 21.28808551 -54.1875 17.5625 C-60.57082296 16.33493789 -66.88186104 15.60866545 -72.75 18.875 C-78.20039177 22.92065163 -81.81820078 27.43092737 -83.015625 34.2109375 C-83.55691985 45.35669053 -79.74020715 53.41086326 -72.52075195 61.65185547 C-64.54755463 70.42418557 -55.53155391 77.80338104 -46 84.8125 C-44.22944182 86.12100741 -42.45986115 87.43083888 -40.69140625 88.7421875 C-39.92127197 89.30921387 -39.1511377 89.87624023 -38.35766602 90.46044922 C-36.4375 91.9375 -36.4375 91.9375 -34.4375 93.9375 C-34.8125 96.0625 -34.8125 96.0625 -35.4375 97.9375 C-39.24358912 97.3330739 -42.22990949 96.20956553 -45.65625 94.4609375 C-46.66026855 93.95788086 -47.66428711 93.45482422 -48.69873047 92.93652344 C-49.76752441 92.4005957 -50.83631836 91.86466797 -51.9375 91.3125 C-66.30382054 84.31784952 -80.50291469 77.44918945 -96.75 77.1875 C-97.50845215 77.17170898 -98.2669043 77.15591797 -99.04833984 77.13964844 C-105.86950534 77.33736338 -110.8360875 80.19787204 -115.49609375 85.10546875 C-115.95113281 85.77191406 -116.40617187 86.43835938 -116.875 87.125 C-117.34808594 87.79917969 -117.82117188 88.47335938 -118.30859375 89.16796875 C-121.58071481 94.29693359 -121.1693992 100.0339734 -120.4375 105.9375 C-117.52988394 112.17228747 -111.81329983 117.37865057 -105.4375 119.9375 C-102.8290208 120.23164765 -100.30216689 120.44387617 -97.6875 120.5625 C-96.99011719 120.60117188 -96.29273437 120.63984375 -95.57421875 120.6796875 C-93.86239182 120.77348624 -92.14998318 120.85656174 -90.4375 120.9375 C-90.1075 122.2575 -89.7775 123.5775 -89.4375 124.9375 C-90.16195312 125.28941406 -90.88640625 125.64132813 -91.6328125 126.00390625 C-99.09394432 129.81405757 -105.25102382 133.89954206 -108.4375 141.9375 C-109.09438222 148.54044598 -109.59033968 155.44503462 -105.4375 160.9375 C-100.53842578 166.05177903 -95.34252717 169.41182327 -88.1875 170.375 C-73.1989277 168.62633323 -61.10314982 158.48090265 -51.91259766 147.0390625 C-47.57653787 141.49302941 -43.34397753 135.86562155 -39.15673828 130.20654297 C-38.09494947 128.77508436 -37.01695332 127.35568537 -35.9375 125.9375 C-35.08671875 124.7928125 -35.08671875 124.7928125 -34.21875 123.625 C-32.02691168 121.54852159 -30.39614714 121.2617353 -27.4375 120.9375 C-28.81659174 127.81682896 -31.50596852 133.4336995 -34.75 139.625 C-47.75574705 164.54704173 -47.75574705 164.54704173 -47.55859375 191.76953125 C-44.40857935 198.70372137 -39.55994437 204.01479639 -32.4375 206.9375 C-25.39161391 207.87841025 -19.20829439 207.25612513 -13.4375 202.9375 C-7.33171934 197.1988821 -5.28285191 192.01294235 -4.8125 183.625 C-4.70035156 181.74361328 -4.70035156 181.74361328 -4.5859375 179.82421875 C-4.51246094 178.39529297 -4.51246094 178.39529297 -4.4375 176.9375 C-2.7875 176.9375 -1.1375 176.9375 0.5625 176.9375 C0.84222656 177.58976563 1.12195313 178.24203125 1.41015625 178.9140625 C4.775286 186.25026176 8.85665745 191.87173468 16.5625 194.9375 C24.19711303 195.79577022 30.43891567 195.7853376 36.5625 190.9375 C42.02216981 185.72666232 43.64083608 180.57871538 44 173.1875 C43.70210786 161.07818457 35.67982563 152.24562912 27.5625 143.9375 C24.04694098 140.72446683 20.33968943 137.83480361 16.5625 134.9375 C15.28760494 133.91488932 14.01564045 132.88861802 12.74609375 131.859375 C11.41408925 130.78121695 10.08205818 129.70309172 8.75 128.625 C8.12770508 128.120896 7.50541016 127.61679199 6.86425781 127.09741211 C4.02353259 124.81912002 1.23548407 122.71010989 -1.88671875 120.83203125 C-2.72847656 120.20683594 -3.57023437 119.58164063 -4.4375 118.9375 C-4.4375 117.6175 -4.4375 116.2975 -4.4375 114.9375 C2.64494989 115.30815155 8.13575909 118.45451746 14.375 121.625 C24.55961024 126.66915535 34.64197258 130.80851536 45.5625 133.9375 C46.25472656 134.14375 46.94695312 134.35 47.66015625 134.5625 C56.15335179 136.23672335 65.16326134 135.61070336 72.5625 130.9375 C77.0494388 126.86756294 81.04597284 122.36942566 81.96875 116.23828125 C82.21379877 108.42735164 80.79708184 103.77988874 75.5625 97.9375 C70.27876292 92.91150619 65.43687694 91.71550245 58.25 91.3125 C56.99574219 91.23773438 55.74148437 91.16296875 54.44921875 91.0859375 C53.02029297 91.01246094 53.02029297 91.01246094 51.5625 90.9375 C51.2325 89.6175 50.9025 88.2975 50.5625 86.9375 C51.28695312 86.58558594 52.01140625 86.23367187 52.7578125 85.87109375 C60.09893848 82.12222542 65.21191449 78.63867101 68.9375 71.1875 C70.17569364 64.74889306 70.88240117 58.46454652 67.5625 52.5625 C64.04664412 47.67043767 59.20728161 44.81909387 53.5625 42.9375 C42.00374964 41.70597409 35.02032043 45.0645954 26.0625 52.0625 C16.08088966 60.6082083 8.40037075 70.58673934 0.65136719 81.12036133 C0.03551758 81.95720459 -0.58033203 82.79404785 -1.21484375 83.65625 C-2.03843384 84.78450195 -2.03843384 84.78450195 -2.87866211 85.93554688 C-4.31011075 87.77389909 -5.65728386 89.43314317 -7.4375 90.9375 C-9.625 90.625 -9.625 90.625 -11.4375 89.9375 C-10.8489044 86.30077685 -9.85656771 83.45443419 -8.14453125 80.19921875 C-7.68175781 79.30444824 -7.21898437 78.40967773 -6.7421875 77.48779297 C-6.24976563 76.54307129 -5.75734375 75.59834961 -5.25 74.625 C7.84887136 49.35560019 7.84887136 49.35560019 9.05859375 21.68359375 C7.03155797 15.5793203 3.52104641 10.91151782 -2.0625 7.625 C-12.37243004 2.47003498 -21.36657307 4.86657307 -29.4375 12.9375 Z M-55.4375 172.9375 C-54.4375 175.9375 -54.4375 175.9375 -54.4375 175.9375 Z " fill="#010300" transform="translate(147.4375,4.0625)"/>
<path d="M0 0 C5.84763714 4.12774386 9.56678437 8.88750003 11 16 C13.24605007 33.77588198 3.57665222 52.22559561 -4.328125 67.546875 C-4.70219482 68.27503418 -5.07626465 69.00319336 -5.46166992 69.75341797 C-6.17811986 71.13420083 -6.90687661 72.50869008 -7.6496582 73.87548828 C-9.56736145 77.46771365 -9.56736145 77.46771365 -9.71484375 81.4453125 C-9.47894531 81.95835938 -9.24304688 82.47140625 -9 83 C-6.65775314 82.98830975 -6.65775314 82.98830975 -4 82 C-2.20752724 79.89295421 -0.74356591 77.92593947 0.75 75.625 C1.62590363 74.33909544 2.50485731 73.05526359 3.38671875 71.7734375 C3.82419434 71.13374023 4.26166992 70.49404297 4.71240234 69.83496094 C7.86746851 65.33866262 11.44096054 61.17745411 15 57 C15.70640625 56.14664063 16.4128125 55.29328125 17.140625 54.4140625 C24.43164216 45.89039136 34.12568971 36.1013766 45.73828125 34.66015625 C53.22668841 34.27003593 58.81991899 35.71608021 65 40 C69.21157922 44.3168687 71.28659453 48.20539024 71.3125 54.25 C71.15732944 60.39148725 70.48100586 65.21671067 66.30078125 69.90625 C62.97449811 72.99074045 59.65922358 75.30479312 55.5625 77.25 C54.386875 77.8275 53.21125 78.405 52 79 C51.505 80.485 51.505 80.485 51 82 C43.41 82 35.82 82 28 82 C29.6396875 79.586875 29.6396875 79.586875 31.3125 77.125 C34.64695577 71.92081904 36.63226089 67.00502599 38 61 C37.566875 62.0725 37.13375 63.145 36.6875 64.25 C33.45588628 70.79518866 28.03194318 75.8144097 23 81 C22.47921875 81.598125 21.9584375 82.19625 21.421875 82.8125 C18.73294802 85.05819726 15.38563087 84.72248927 12 85 C12.32613281 84.39414063 12.65226562 83.78828125 12.98828125 83.1640625 C16.0754648 77.24468402 18.31048758 71.45586045 20 65 C19.74347656 65.60585937 19.48695313 66.21171875 19.22265625 66.8359375 C13.2769743 79.84837274 3.46357741 88.37211923 -9 94.9609375 C-12.46297412 96.16035301 -14.48794405 95.88846653 -18 95 C-18.84770456 92.81716075 -19.67807547 90.63003921 -20.5 88.4375 C-20.9640625 87.21933594 -21.428125 86.00117187 -21.90625 84.74609375 C-24.41837501 76.14206559 -22.46977895 67.21887814 -18.6875 59.2265625 C-17.51241196 57.1100687 -16.30313609 55.03969127 -15 53 C-15.33 53 -15.66 53 -16 53 C-20.6668403 58.1279353 -23.24168035 63.33689395 -25 70 C-25.66 70 -26.32 70 -27 70 C-28.89576107 64.64726286 -29.15168873 60.59663613 -28 55 C-27.81308594 54.05640625 -27.62617187 53.1128125 -27.43359375 52.140625 C-25.93438434 45.38989922 -23.72268571 39.82681242 -20 34 C-24.3791455 38.67108853 -27.34104848 43.17076013 -30 49 C-30.66 49 -31.32 49 -32 49 C-32.09948577 44.01958936 -32.17175686 39.03976748 -32.21972656 34.05859375 C-32.2397406 32.36708489 -32.26696073 30.67564433 -32.30175781 28.984375 C-32.35073065 26.54149446 -32.37307033 24.09953489 -32.390625 21.65625 C-32.41127014 20.91008423 -32.43191528 20.16391846 -32.45318604 19.3951416 C-32.45588051 12.97259442 -30.44552387 7.8921949 -26.2890625 2.9765625 C-18.02375089 -3.73657791 -9.55042692 -5.12893298 0 0 Z " fill="#3AB216" transform="translate(146,12)"/>
<path d="M0 0 C5.16808728 4.98268504 8.27616657 9.42356444 8.4375 16.75 C8.29563734 24.51461613 5.53897374 28.46102626 0.1875 33.8125 C-7.61624991 39.16801465 -14.6949084 40.00622511 -24 39 C-40.07613717 35.85466882 -55.06560697 28.12596674 -69.52734375 20.67578125 C-72.78134365 19.10551583 -74.47058249 18.55882281 -78 19 C-78.45030996 22.82773826 -78.45030996 22.82773826 -76.70581055 24.4128418 C-76.10551025 24.83734619 -75.50520996 25.26185059 -74.88671875 25.69921875 C-74.22091797 26.18173096 -73.55511719 26.66424316 -72.86914062 27.16137695 C-72.14919922 27.66499756 -71.42925781 28.16861816 -70.6875 28.6875 C-69.21089166 29.75595213 -67.73563611 30.82627625 -66.26171875 31.8984375 C-65.53388184 32.42405273 -64.80604492 32.94966797 -64.05615234 33.49121094 C-59.5464156 36.80042171 -55.27923614 40.40011886 -51 44 C-49.92685547 44.87011719 -49.92685547 44.87011719 -48.83203125 45.7578125 C-40.29757667 52.85610161 -31.24040209 62.62454163 -29.55859375 73.98046875 C-29.29606843 80.66216163 -30.19707857 86.4061679 -34 92 C-37.81768775 96.1126909 -41.1220243 98.72440725 -46.85546875 99.2734375 C-54.32382252 99.50107783 -59.34843393 99.10117603 -65 94 C-69.54709317 89.65579551 -72.68496467 84.58734822 -73.23901367 78.27832031 C-73.29448535 75.20102264 -73.26198582 72.13933746 -73.1875 69.0625 C-73.17396484 67.99708984 -73.16042969 66.93167969 -73.14648438 65.83398438 C-73.11134724 63.22212412 -73.06215184 60.61133366 -73 58 C-72.28714844 58.47050781 -71.57429687 58.94101563 -70.83984375 59.42578125 C-62.1012426 65.58047572 -62.1012426 65.58047572 -52 68 C-52.53367188 67.74347656 -53.06734375 67.48695313 -53.6171875 67.22265625 C-61.89969991 62.96676319 -69.794159 56.81450745 -75 49 C-75.75 45.1875 -75.75 45.1875 -76 42 C-74.94039062 42.5053125 -73.88078125 43.010625 -72.7890625 43.53125 C-71.40113686 44.18770131 -70.01311081 44.84394033 -68.625 45.5 C-67.92632812 45.83386719 -67.22765625 46.16773438 -66.5078125 46.51171875 C-62.91172001 48.35209398 -62.91172001 48.35209398 -59 49 C-59.67804688 48.61070312 -60.35609375 48.22140625 -61.0546875 47.8203125 C-73.98256673 40.04926044 -81.97465523 31.14418231 -87 17 C-87 15.68 -87 14.36 -87 13 C-76.44455212 7.03988622 -69.08641199 5.87753611 -57.3984375 8.9453125 C-54.23525034 9.89216453 -51.11620519 10.90978244 -48 12 C-47.01 12.33 -46.02 12.66 -45 13 C-51.45203129 8.75813262 -57.4837069 5.82310088 -65 4 C-62.02715948 1.02715948 -59.32196168 0.05388431 -55.125 -0.1171875 C-47.89285187 0.44330398 -41.45358747 1.82532276 -34.58203125 4.16015625 C-32.13554395 5.10310459 -32.13554395 5.10310459 -30 5 C-34.88570819 2.15543212 -39.52067211 -0.45454854 -45 -2 C-44.67 -2.66 -44.34 -3.32 -44 -4 C-32.16812265 -6.8154166 -9.95128315 -7.72960133 0 0 Z " fill="#3AB116" transform="translate(221,100)"/>
<path d="M0 0 C0.33 0 0.66 0 1 0 C1 7.26 1 14.52 1 22 C1.66 22 2.32 22 3 22 C3.20625 21.175 3.4125 20.35 3.625 19.5 C5.80384231 13.95385594 9.0200113 9.31999247 14 6 C12.87851873 8.99061672 11.58698255 11.76469487 10.0625 14.5625 C5.38172523 23.94164645 4.48570984 32.71012469 6 43 C6.66 43 7.32 43 8 43 C8.04125 42.030625 8.0825 41.06125 8.125 40.0625 C9.03023701 33.69997704 13.20062088 28.60379443 17.875 24.4375 C18.57625 23.963125 19.2775 23.48875 20 23 C19.7215625 23.55300781 19.443125 24.10601562 19.15625 24.67578125 C12.18745759 38.65391362 12.18745759 38.65391362 11 54 C11.93421855 56.61581193 12.97778079 59.13850973 14.125 61.66796875 C15 64 15 64 15 68 C20.23210484 68.44203651 23.81931849 67.03737244 28.3125 64.5625 C28.97040527 64.20414062 29.62831055 63.84578125 30.30615234 63.4765625 C40.72826036 57.55473558 48.30293191 48.99909175 51.8125 37.5 C52.22049621 36.00326251 52.62084202 34.50430158 53 33 C53.33 33 53.66 33 54 33 C53.61377274 42.25014296 51.0083335 49.23708307 46 57 C53.31468259 56.51475079 55.86132837 53.78981207 60.69921875 48.62890625 C65.23478839 43.44649816 68.50626728 38.43120544 71 32 C72.49787267 35.86488134 71.4545188 38.1579288 69.875 41.875 C69.45992188 42.88304687 69.04484375 43.89109375 68.6171875 44.9296875 C66.76361767 48.44878384 64.63289948 51.03023123 62 54 C63.73636719 53.98259766 63.73636719 53.98259766 65.5078125 53.96484375 C67.04687338 53.95545923 68.58593601 53.94635974 70.125 53.9375 C71.26582031 53.92493164 71.26582031 53.92493164 72.4296875 53.91210938 C76.7389644 53.89353491 80.75516474 54.13882735 85 55 C85 55.33 85 55.66 85 56 C78.07 56.66 71.14 57.32 64 58 C68.455 59.98 68.455 59.98 73 62 C78.74358974 65.48717949 78.74358974 65.48717949 80 68 C78.845 67.566875 77.69 67.13375 76.5 66.6875 C72.01528009 65.19971197 67.50349529 64.16467373 62.875 63.25 C62.20662109 63.11037842 61.53824219 62.97075684 60.84960938 62.8269043 C55.18216576 61.75832595 50.44737322 62.18420893 45 64 C45.94101563 64.37511719 46.88203125 64.75023438 47.8515625 65.13671875 C60.15267398 70.15267398 60.15267398 70.15267398 65 75 C61.76248505 75 59.98662834 74.3144421 57 73.125 C47.95744084 69.77281118 38.01510285 67.01253379 28.734375 70.96484375 C27.34935629 71.66482623 25.97846896 72.39404086 24.62890625 73.16015625 C23 74 23 74 21 74 C27.29869305 90.53846778 33.59817516 99.7937396 49 109 C50.485 109.99 50.485 109.99 52 111 C44.51883867 110.71769203 39.34925886 107.81655817 33 104 C34.01460733 111.97191471 37.87629618 115.99727676 44 121 C46.52733054 122.69718547 49.07234561 124.24274106 51.73828125 125.7109375 C53.97791106 126.98741045 55.97198277 128.41285608 58 130 C48.944436 129.50606015 42.91403649 125.67895466 36 120 C36.00523682 120.56509277 36.01047363 121.13018555 36.01586914 121.71240234 C36.03662422 124.2665903 36.0496554 126.82076053 36.0625 129.375 C36.07087891 130.26445312 36.07925781 131.15390625 36.08789062 132.0703125 C36.09111328 132.92109375 36.09433594 133.771875 36.09765625 134.6484375 C36.10289307 135.43395996 36.10812988 136.21948242 36.11352539 137.02880859 C36 139 36 139 35 141 C33.68 140.67 32.36 140.34 31 140 C31.99 140 32.98 140 34 140 C33.67 134.39 33.34 128.78 33 123 C32.34 123 31.68 123 31 123 C30.87625 123.53367187 30.7525 124.06734375 30.625 124.6171875 C28.67897228 131.64721262 24.95298317 136.69999253 20 142 C19.34 142.33 18.68 142.66 18 143 C19.00670389 140.94483952 20.03934963 138.93181996 21.18359375 136.94921875 C27.03212652 126.39999609 29.05012498 114.88084475 27 103 C26.34 103 25.68 103 25 103 C24.9071875 104.175625 24.9071875 104.175625 24.8125 105.375 C23.33455034 111.96892927 20.78684814 118.21202052 15 122 C15.19335938 121.43152344 15.38671875 120.86304688 15.5859375 120.27734375 C15.84632813 119.50519531 16.10671875 118.73304688 16.375 117.9375 C16.75785156 116.80634766 16.75785156 116.80634766 17.1484375 115.65234375 C20.86688178 104.0705838 22.97313794 93.3667333 17.71484375 81.9765625 C16.10214562 79.78074607 16.10214562 79.78074607 13.30078125 79.08984375 C9.34231976 78.98209864 5.98144238 79.74086657 2.25 80.9375 C1.19655396 81.27104492 1.19655396 81.27104492 0.12182617 81.61132812 C-6.33917091 83.82559427 -11.08895765 87.26365876 -16 92 C-16.928125 92.825 -17.85625 93.65 -18.8125 94.5 C-21.65608357 97.7498098 -23.82922375 101.27734966 -26 105 C-27 102 -27 102 -26.1796875 99.73046875 C-23.55206423 94.60896352 -20.90415066 90.23879214 -17 86 C-21.50431545 85.23511624 -23.80722162 85.24854962 -27.734375 87.72265625 C-32.82887239 91.82499324 -37.40602334 96.22331836 -41.5625 101.2734375 C-42.95949143 102.95134569 -44.43388605 104.48049658 -46 106 C-44.75350667 97.655827 -38.99695831 91.56860415 -33 86 C-38.28 85.01 -43.56 84.02 -49 83 C-49 82.67 -49 82.34 -49 82 C-42.565 81.505 -42.565 81.505 -36 81 C-37.36125 79.96875 -38.7225 78.9375 -40.125 77.875 C-44.06603178 74.81805434 -47.5654156 71.61071693 -51 68 C-50.505 67.01 -50.505 67.01 -50 66 C-48.576875 67.3303125 -48.576875 67.3303125 -47.125 68.6875 C-42.81259061 72.37391448 -38.18026331 74.74459305 -33 77 C-32.24460937 77.33386719 -31.48921875 77.66773437 -30.7109375 78.01171875 C-24.91154069 80.27614754 -20.08391732 80.05420697 -14 79 C-14.6290625 78.64808594 -15.258125 78.29617187 -15.90625 77.93359375 C-30.08139535 69.75726744 -30.08139535 69.75726744 -33.5 63.0625 C-33.7475 62.0415625 -33.7475 62.0415625 -34 61 C-33.0925 61.86625 -32.185 62.7325 -31.25 63.625 C-24.28791675 69.58645995 -12.62105297 76.4318078 -3.125 75.8125 C-1.578125 75.4103125 -1.578125 75.4103125 0 75 C1.95650573 74.63587254 3.91503007 74.28249471 5.875 73.9375 C7.58341195 73.62543008 9.29177174 73.31307386 11 73 C10.06460476 70.47836818 9.12674545 67.95769759 8.1875 65.4375 C7.92646484 64.73302734 7.66542969 64.02855469 7.39648438 63.30273438 C6.86688703 61.88393654 6.33068744 60.46758655 5.78808594 59.05371094 C5.06136454 57.15991279 4.35585605 55.2580107 3.65234375 53.35546875 C1.72854799 49.44875349 -0.51956234 46.870857 -3.625 43.875 C-4.1519043 43.35583008 -4.67880859 42.83666016 -5.22167969 42.30175781 C-9.37748957 38.32696324 -13.7003528 35.30186697 -19 33 C-16 32 -16 32 -12.71484375 33.3984375 C-11.45051123 34.04722222 -10.19153224 34.706523 -8.9375 35.375 C-7.98133789 35.87 -7.98133789 35.87 -7.00585938 36.375 C-5.33316788 37.24219096 -3.66621804 38.12043508 -2 39 C-1.01 39.495 -1.01 39.495 0 40 C-0.35545755 34.2038657 -1.96926106 31.01233634 -5.9375 26.9375 C-6.42532959 26.41945801 -6.91315918 25.90141602 -7.41577148 25.36767578 C-11.19620723 21.49396368 -15.20319105 18.62071513 -20.00390625 16.0859375 C-22 15 -22 15 -24 13 C-15.77813914 13.52479963 -9.06231297 17.50602887 -3 23 C-2.505 23.99 -2.505 23.99 -2 25 C-1.96241577 23.91730835 -1.96241577 23.91730835 -1.92407227 22.81274414 C-1.80848698 19.562465 -1.68559226 16.31250312 -1.5625 13.0625 C-1.52318359 11.92619141 -1.48386719 10.78988281 -1.44335938 9.61914062 C-1.38051758 7.99975586 -1.38051758 7.99975586 -1.31640625 6.34765625 C-1.27974854 5.34742432 -1.24309082 4.34719238 -1.20532227 3.31665039 C-1 1 -1 1 0 0 Z " fill="#226B09" transform="translate(113,39)"/>
<path d="M0 0 C0.33 0.66 0.66 1.32 1 2 C-0.0005414 4.85048501 -1.06645907 7.63475923 -2.1875 10.4375 C-8.68091756 27.41692039 -12.44984707 44.51423093 -8.4375 62.59765625 C-7.96017641 65.21867416 -7.66307398 67.3477875 -8 70 C-9.6796875 71.80078125 -9.6796875 71.80078125 -11.875 73.3125 C-12.59429687 73.82425781 -13.31359375 74.33601563 -14.0546875 74.86328125 C-16 76 -16 76 -18 76 C-23.54979733 50.72860143 -17.90724503 27.82964123 -5.1328125 5.70703125 C-3.67287024 3.50704929 -2.00755408 1.71013866 0 0 Z " fill="#216B09" transform="translate(87,168)"/>
<path d="M0 0 C0.33 0 0.66 0 1 0 C1.12562313 6.40677966 1.12562313 6.40677966 0.5078125 9.32421875 C-1.07223598 17.6498588 -0.25998975 26.3837962 1.5625 34.59765625 C2.03334905 37.18312203 2.26797471 39.38076328 2 42 C0.26662481 44.20760048 -1.66150402 45.36305281 -4 47 C-4.66 47 -5.32 47 -6 47 C-6.90117578 31.47975051 -4.50429037 14.85457462 0 0 Z " fill="#37AB14" transform="translate(77,196)"/>
</svg>
