<svg width="12" height="12" viewBox="0 0 12 12" fill="none" xmlns="http://www.w3.org/2000/svg">
<mask id="mask0_1_774" style="mask-type:alpha" maskUnits="userSpaceOnUse" x="0" y="0" width="12" height="12">
<circle cx="6" cy="6" r="6" fill="#D9D9D9"/>
</mask>
<g mask="url(#mask0_1_774)">
<path d="M-6.94702 10.316H22.7372V17.6845H-6.94702V10.316Z" fill="#FFCE00"/>
<path d="M-6.94702 -4.42102H22.7372V2.9474H-6.94702V-4.42102Z" fill="black"/>
<path d="M-6.94702 2.94714H22.7372V10.3156H-6.94702V2.94714Z" fill="#DD0000"/>
<path d="M-2.52661 0H14.4358V12.6316H-2.52661V0Z" fill="#012169"/>
<path d="M-0.538829 0L5.92809 4.76316L12.3685 0H14.4358V1.63158L8.07489 6.3421L14.4358 11.0263V12.6316H12.3155L5.95459 7.92105L-0.379807 12.6316H-2.52661V11.0526L3.80779 6.36842L-2.52661 1.68421V0H-0.538829Z" fill="white"/>
<path d="M8.71098 7.39474L14.4358 11.5789V12.6316L7.25328 7.39474H8.71098ZM3.83429 7.92105L3.99331 8.8421L-1.09541 12.6316H-2.52661L3.83429 7.92105ZM14.4358 0V0.0789474L7.83636 5.02632L7.88937 3.86842L13.1106 0H14.4358ZM-2.52661 0L3.80779 4.63158H2.21756L-2.52661 1.10526V0Z" fill="#C8102E"/>
<path d="M3.8608 0V12.6316H8.1014V0H3.8608ZM-2.52661 4.21053V8.42105H14.4358V4.21053H-2.52661Z" fill="white"/>
<path d="M-2.52661 5.07895V7.60526H14.4358V5.07895H-2.52661ZM4.70892 0V12.6316H7.25328V0H4.70892Z" fill="#C8102E"/>
</g>
</svg>
