<svg width="20" height="24" viewBox="0 0 20 24" fill="none" xmlns="http://www.w3.org/2000/svg">
<g clip-path="url(#clip0_1_75)">
<path d="M18.5714 1.5H1.42411C0.638393 1.5 0 2.17969 0 3.01406V20.9859C0 21.8203 0.638393 22.5 1.42411 22.5H18.5714C19.3571 22.5 20 21.8203 20 20.9859V3.01406C20 2.17969 19.3571 1.5 18.5714 1.5ZM6.04464 19.5H3.08036V9.47812H6.04911V19.5H6.04464ZM4.5625 8.10938C3.61161 8.10938 2.84375 7.29844 2.84375 6.30469C2.84375 5.31094 3.61161 4.5 4.5625 4.5C5.50893 4.5 6.28125 5.31094 6.28125 6.30469C6.28125 7.30312 5.51339 8.10938 4.5625 8.10938ZM17.1562 19.5H14.192V14.625C14.192 13.4625 14.1696 11.9672 12.6518 11.9672C11.1071 11.9672 10.8705 13.2328 10.8705 14.5406V19.5H7.90625V9.47812H10.75V10.8469H10.7902C11.1875 10.0594 12.1563 9.22969 13.5982 9.22969C16.5982 9.22969 17.1562 11.3062 17.1562 14.0062V19.5Z" fill="#1074AF"/>
</g>
<defs>
<clipPath id="clip0_1_75">
<rect width="20" height="24" fill="white"/>
</clipPath>
</defs>
</svg>
