<svg width="142" height="45" viewBox="0 0 142 45" fill="none" xmlns="http://www.w3.org/2000/svg">
<path d="M8.79533 22.687C8.79533 22.6459 8.79533 22.6459 8.79533 22.6048C8.79533 22.276 8.54873 22.0294 8.21993 22.0294C8.17883 22.0294 8.17883 22.0294 8.13773 22.0294H2.79478C1.27409 22.0294 0 20.7964 0 19.2346V11.5901C0 10.0694 1.23299 8.79533 2.79478 8.79533H8.13773H8.21993C8.54873 8.79533 8.79533 8.54873 8.79533 8.21993V8.17883V0.616495C8.79533 0.287698 9.04193 0.0410997 9.37072 0.0410997H12.6176C12.9464 0.0410997 13.193 0.287698 13.193 0.616495V10.4393C13.193 11.96 11.96 13.2341 10.3982 13.2341H5.05526H4.97306C4.64426 13.2341 4.39766 13.4807 4.39766 13.8095V13.8917V16.9742C4.39766 17.0153 4.39766 17.0153 4.39766 17.0564C4.39766 17.3852 4.64426 17.6318 4.97306 17.6318C5.01416 17.6318 5.01416 17.6318 5.05526 17.6318H10.4393C11.96 17.6318 13.2341 18.8647 13.2341 20.4265V34.6059C13.2341 34.647 13.2341 34.647 13.2341 34.6881C13.2341 35.0169 13.4807 35.2635 13.8095 35.2635C13.8506 35.2635 13.8506 35.2635 13.8917 35.2635H25.7695C25.8106 35.2635 25.8106 35.2635 25.8517 35.2635C26.1805 35.2635 26.4271 35.0169 26.4271 34.6881C26.4271 34.647 26.4271 34.647 26.4271 34.6059V27.0436C26.4271 26.7148 26.6737 26.4682 27.0025 26.4682H30.2493C30.5781 26.4682 30.8247 26.7148 30.8247 27.0436V36.8664C30.8247 38.3871 29.5918 39.6612 28.03 39.6612H11.5901C10.0694 39.6612 8.79533 38.4282 8.79533 36.8664V22.687ZM35.2224 22.687C35.2224 22.6459 35.2224 22.6459 35.2224 22.6048C35.2224 22.276 34.9758 22.0294 34.647 22.0294C34.6059 22.0294 34.6059 22.0294 34.5648 22.0294H29.2219C27.7012 22.0294 26.4271 20.7964 26.4271 19.2346V5.05526C26.4271 5.01416 26.4271 5.01416 26.4271 4.97306C26.4271 4.64426 26.1805 4.39766 25.8517 4.39766C25.8106 4.39766 25.8106 4.39766 25.7695 4.39766H22.687C22.6459 4.39766 22.6459 4.39766 22.6048 4.39766C22.276 4.39766 22.0294 4.64426 22.0294 4.97306C22.0294 5.01416 22.0294 5.01416 22.0294 5.05526V30.2083C22.0294 30.537 21.7828 30.7836 21.454 30.7836H18.2071C17.8784 30.7836 17.6318 30.537 17.6318 30.2083V2.79478C17.6318 1.27409 18.8647 0 20.4265 0H28.0711C29.5918 0 30.8658 1.23299 30.8658 2.79478V16.9742C30.8658 17.0153 30.8658 17.0153 30.8658 17.0564C30.8658 17.3852 31.1124 17.6318 31.4412 17.6318C31.4823 17.6318 31.4823 17.6318 31.5234 17.6318H36.8664C38.3871 17.6318 39.6612 18.8647 39.6612 20.4265V39.0447C39.6612 39.3735 39.4146 39.6201 39.0858 39.6201H35.8389C35.5101 39.6201 35.2635 39.3735 35.2635 39.0447V22.687H35.2224Z" fill="#43B02A"/>
<path d="M62.8842 40.6478C62.8842 42.374 61.3635 43.9769 58.7332 43.9769H57.9523C55.363 43.9769 53.8423 42.6617 53.6368 41.2643L53.5957 41.0177L56.3905 40.7711L56.5138 40.9355C56.6782 41.2643 57.0892 41.4698 57.7879 41.4698H58.4044C59.1853 41.4698 59.8429 41.0588 59.8429 40.1957V39.1682C59.2675 39.5381 58.6099 39.7025 57.9523 39.7025H56.7604C54.7054 39.7025 53.5957 37.9763 53.5957 36.1679V31.3593C53.5957 29.5098 54.7054 27.8247 56.7604 27.8247H57.7879C58.7743 27.8247 59.7196 28.2357 60.5004 28.9344L60.8292 27.948H62.8842V40.6478ZM59.8429 36.4556V31.1127C59.473 30.7428 58.9798 30.4962 58.4455 30.4962H57.7879C57.1714 30.4962 56.596 30.9072 56.596 31.7703V35.798C56.596 36.6611 57.1303 37.0721 57.7468 37.0721H58.3633C58.8976 37.0721 59.473 36.8255 59.8429 36.4556Z" fill="#53565A"/>
<path d="M70.853 30.6194H69.4145C68.6748 30.6194 67.8939 30.9071 67.4007 31.4003V39.5791H64.4004V27.989H66.4554L66.7842 29.0987C67.6884 28.3178 68.757 27.8657 69.8666 27.8657H70.853V30.6194Z" fill="#53565A"/>
<path d="M84.0092 4.27437H82.2009C78.5019 4.27437 76.4058 6.61705 76.4058 9.16523V16.2755C76.4058 18.8237 78.543 21.1663 82.2009 21.1663H84.0092C87.5438 21.1663 89.5577 18.8237 89.5577 16.2755V9.16523C89.5577 6.61705 87.5438 4.27437 84.0092 4.27437ZM85.2833 15.5768C85.2833 16.8098 84.4613 17.3852 83.475 17.3852H82.4475C81.4611 17.3852 80.6391 16.8098 80.6391 15.5768V9.82282C80.6391 8.63093 81.4611 8.01444 82.4475 8.01444H83.475C84.4613 8.01444 85.2833 8.63093 85.2833 9.82282V15.5768ZM70.0765 4.27437H68.9257C67.7749 4.27437 66.6652 4.64426 65.6788 5.21966V0H61.4044V20.9608H65.6788V8.95973C66.2542 8.38433 67.0351 8.01444 67.8571 8.01444H68.4736C69.4189 8.01444 70.1587 8.54873 70.1587 9.78172V20.9608H74.433V9.12413C74.433 6.57595 72.9123 4.27437 70.0765 4.27437ZM57.8699 0H54.9518L53.6777 4.43876H51.7871V8.21993H53.5955V21.0019H57.8699V8.21993H60.1303V4.43876H57.8699V0ZM134.151 9.24743V8.87753C134.151 8.30213 134.767 8.05554 135.343 8.05554H136.247C136.946 8.05554 137.603 8.50763 137.603 9.41183V9.69952H141.59V9.24743C141.59 6.65815 139.781 4.31547 136.494 4.31547H134.808C131.562 4.31547 129.712 6.37045 129.712 8.63093V9.49402C129.712 14.3438 137.891 14.4671 137.891 16.07V16.3988C137.891 17.0564 137.192 17.3852 136.288 17.3852H135.261C134.315 17.3852 133.534 16.9331 133.534 16.0289V15.7001H129.301V16.3577C129.301 18.8237 131.233 21.1663 134.767 21.1663H136.576C139.946 21.1663 142.001 18.9881 142.001 16.6865V15.9467C142.042 10.727 134.151 10.9325 134.151 9.24743ZM122.52 4.27437H121.081C117.547 4.27437 115.533 6.74035 115.533 9.45292V9.86392H119.807V9.65842C119.807 8.58983 120.506 8.05554 121.328 8.05554H122.15C123.013 8.05554 123.753 8.67203 123.753 9.86392V10.8503L120.506 11.2202C117.67 11.549 114.834 12.9053 114.834 15.7001V16.9742C114.834 19.1524 116.478 21.2074 119.478 21.2074H120.835C122.109 21.2074 123.465 20.632 124.616 19.6456L125.068 21.0019H127.986V9.53512C128.027 6.74035 126.013 4.27437 122.52 4.27437ZM123.794 16.4399C123.136 17.0564 122.109 17.3852 121.122 17.3852H120.341C119.725 17.3852 119.149 17.0153 119.149 16.3166V15.8234C119.149 15.0425 120.095 14.4671 121.163 14.3438L123.794 13.9739V16.4399ZM108.957 4.27437H107.806C106.244 4.27437 104.765 4.89086 103.573 5.95945C102.874 4.93196 101.723 4.27437 100.203 4.27437H99.0517C97.531 4.27437 96.1336 4.89086 94.9007 5.87725L94.4486 4.43876H91.5305V20.9608H95.7638V8.95973C96.3391 8.38433 97.12 8.01444 97.942 8.01444H98.5585C99.5038 8.01444 100.244 8.54873 100.244 9.78172V20.9608H104.518V8.91863C105.052 8.38433 105.874 8.01444 106.696 8.01444H107.313C108.217 8.01444 108.998 8.54873 108.998 9.78172V20.9608H113.272V9.12413C113.313 6.57595 111.793 4.27437 108.957 4.27437Z" fill="#53565A"/>
<path d="M75.2522 27.9888V35.8799C75.2522 36.743 75.7864 37.1129 76.444 37.1129H76.8961C77.4715 37.1129 78.0469 36.8663 78.4168 36.4964V27.9888H81.4171V39.62H79.3621L79.0333 38.6336C78.2113 39.3323 77.1838 39.7433 76.1563 39.7433H75.3343C73.3205 39.7433 72.293 38.1404 72.293 36.2909V27.9888H75.2522Z" fill="#53565A"/>
<path d="M84.9944 27.989L85.2821 28.9343C86.063 28.2767 86.9261 27.8657 87.9125 27.8657H89.0633C91.1183 27.8657 92.228 29.5508 92.228 31.4003V36.2501C92.228 38.0995 91.1183 39.7846 89.0633 39.7846H87.9536C87.2549 39.7846 86.5562 39.5791 85.9397 39.2092V44.0179H82.9395V27.989H84.9944ZM85.9397 31.1126V36.4556C86.3096 36.8255 86.8439 37.072 87.3782 37.072H87.9947C88.6523 37.072 89.1866 36.661 89.1866 35.798V31.7702C89.1866 30.9071 88.6523 30.4961 87.9947 30.4961H87.3782C86.885 30.4961 86.3096 30.7427 85.9397 31.1126Z" fill="#53565A"/>
<path d="M95.6369 27.989L95.9246 28.9343C96.7055 28.2767 97.5686 27.8657 98.555 27.8657H99.7058C101.761 27.8657 102.87 29.5508 102.87 31.4003V36.2501C102.87 38.0995 101.761 39.7846 99.7058 39.7846H98.6372C97.9385 39.7846 97.2398 39.5791 96.6233 39.2092V44.0179H93.623V27.989H95.6369ZM96.5822 31.1126V36.4556C96.9521 36.8255 97.4864 37.072 98.0207 37.072H98.6372C99.2948 37.072 99.8291 36.661 99.8291 35.798V31.7702C99.8291 30.9071 99.2948 30.4961 98.6372 30.4961H98.0207C97.5275 30.4961 96.9521 30.7427 96.5822 31.1126Z" fill="#53565A"/>
<path d="M107.23 34.8116V35.8391C107.23 36.7022 107.805 37.1131 108.504 37.1131H109.203C109.901 37.1131 110.477 36.7432 110.477 35.9213V35.8391H113.477V36.4145C113.477 38.1406 112.08 39.7435 109.573 39.7435H108.298C105.709 39.7435 104.23 38.0995 104.23 36.2912V31.3181C104.23 29.5097 105.709 27.8657 108.298 27.8657H109.573C112.039 27.8657 113.477 29.5097 113.477 31.3181V34.8116H107.23ZM107.23 32.51H110.477V31.7702C110.477 30.9482 109.901 30.4961 109.203 30.4961H108.504C107.805 30.4961 107.23 30.9071 107.23 31.7702V32.51Z" fill="#53565A"/>
</svg>
