<svg width="144" height="46" viewBox="0 0 144 46" fill="none" xmlns="http://www.w3.org/2000/svg">
<path d="M0 3.70292V7.4058H2.26287H4.52574V5.34865V3.29149H9.2572C11.8492 3.29149 13.9887 3.37378 13.9887 3.49721C13.9887 3.62064 10.9441 8.22866 7.20004 13.7418C0.864005 23.1225 0.411431 23.9042 0.411431 25.6733V27.5659H10.0801H19.7487V23.6573V19.7487H17.6915H15.6344V21.8059V23.863H10.6561H5.71889L12.7132 13.495C18.7613 4.56693 19.7487 2.88006 19.7487 1.56348V4.3869e-05H9.87434H0V3.70292Z" fill="#008687"/>
<path d="M25.5082 1.60462C25.5082 3.25035 25.5082 3.25035 27.2774 3.37378L29.0054 3.49721L29.1288 13.6596L29.2111 23.863H27.154H25.0557L25.1791 25.591L25.3025 27.3602L35.3003 27.4836L45.2569 27.5659V23.4516V19.3373H43.1998H41.1426V21.6002V23.863H37.4397H33.7369V13.5773V3.29149H35.3826H37.0283V1.64577V4.3869e-05H31.2683H25.5082V1.60462Z" fill="#008687"/>
<path d="M0.493717 36.6178C0.576003 37.9755 0.781719 38.5103 1.35772 38.5926C1.85144 38.7161 2.05715 38.4692 2.05715 37.6875C2.05715 36.7823 2.22173 36.6178 3.33259 36.6178C4.73146 36.6178 4.81374 36.3709 1.97487 40.6086C0.905148 42.2544 0 43.9412 0 44.435C0 45.2167 0.246859 45.2578 4.11431 45.2578H8.22862V43.4064C8.22862 41.7606 8.14633 41.5549 7.28233 41.5549C6.54175 41.5549 6.33604 41.7606 6.33604 42.4601C6.37718 43.2418 6.13032 43.4475 4.97831 43.5298C3.2503 43.6944 3.33259 43.5298 6.17146 39.2921C7.32347 37.5641 8.22862 35.8772 8.14633 35.5069C8.06405 35.0132 7.28233 34.8898 4.1966 34.8075L0.370288 34.7663L0.493717 36.6178Z" fill="black"/>
<path d="M78.2527 35.3423C78.1293 35.6715 78.335 36.124 78.7053 36.412C79.6927 37.1115 79.7338 43.6121 78.7464 43.6121C78.3761 43.6121 78.1704 43.9001 78.2527 44.3115C78.335 44.8875 78.8698 45.0932 80.5567 45.1755C82.4904 45.299 82.6961 45.2167 82.6961 44.4761C82.6961 43.9824 82.5316 43.6121 82.3258 43.6121C82.1201 43.6121 81.8733 43.2418 81.7498 42.7892C81.4207 41.5961 81.8321 41.7606 83.3956 43.6121C84.4653 44.8464 85.1236 45.2578 86.0287 45.2578C86.9339 45.2578 87.2219 45.0521 87.2219 44.435C87.2219 43.9824 86.975 43.6121 86.6459 43.6121C86.3167 43.6121 85.6584 43.0772 85.2059 42.4189L84.383 41.2669L85.2882 40.3618C85.823 39.9092 86.4813 39.4978 86.7282 39.4978C87.0162 39.4978 87.2219 39.1275 87.2219 38.6749C87.2219 37.9343 86.9339 37.8521 84.7944 37.8521C82.8196 37.8521 82.367 37.9755 82.4493 38.5103C82.4904 38.8395 82.7784 39.2921 83.1076 39.4978C83.519 39.7446 83.4367 39.9092 82.7784 40.2795C81.9556 40.7321 81.9144 40.6498 81.791 37.8109L81.6676 34.8486L80.063 34.8075C79.0755 34.7663 78.4173 34.972 78.2527 35.3423Z" fill="black"/>
<path d="M91.7478 35.6715C91.7478 36.2475 91.9947 36.6178 92.3649 36.6178C92.8587 36.6178 92.9821 37.2761 92.9821 39.9092C92.9821 42.5424 92.8587 43.2007 92.3649 43.2007C91.9947 43.2007 91.7478 43.5709 91.7478 44.2292V45.2578H96.0678H100.388V42.7892C100.388 40.6086 100.306 40.3206 99.6061 40.3206C98.9478 40.3206 98.7833 40.6498 98.6598 41.8429C98.5364 43.2829 98.413 43.4064 97.2198 43.5298L95.8621 43.6532V40.1561C95.8621 38.0578 96.0267 36.6178 96.2735 36.6178C96.5204 36.6178 96.685 36.2063 96.685 35.6715C96.685 34.8486 96.4793 34.7663 94.2164 34.7663C91.9124 34.7252 91.7478 34.8075 91.7478 35.6715Z" fill="black"/>
<path d="M102.859 35.3424C102.859 36.4533 103.641 36.8235 104.381 36.083C105.122 35.3424 104.752 34.5607 103.641 34.5607C103.147 34.5607 102.859 34.8487 102.859 35.3424Z" fill="black"/>
<path d="M105.903 35.0133C105.574 35.5893 106.767 36.7825 107.343 36.4533C107.59 36.2888 107.796 35.795 107.796 35.3425C107.796 34.4785 106.397 34.2316 105.903 35.0133Z" fill="black"/>
<path d="M109.85 35.6712C109.85 36.2472 110.096 36.6175 110.467 36.6175C110.96 36.6175 111.084 37.2758 111.084 39.909C111.084 42.4598 110.96 43.2827 110.467 43.4473C110.138 43.6118 109.85 44.0233 109.85 44.4758C109.85 45.1341 110.22 45.2164 113.182 45.1753C115.898 45.1753 116.679 45.0107 117.297 44.3936C118.284 43.4061 118.366 40.0735 117.42 38.7158C116.844 37.893 116.474 37.7695 114.951 37.9752L113.141 38.181V36.4529V34.7661H111.495C110.055 34.7249 109.85 34.8484 109.85 35.6712ZM115.774 40.8553C115.898 41.349 115.692 42.1718 115.363 42.7067C114.746 43.653 114.704 43.653 113.923 42.9536C112.976 42.0895 112.935 41.0198 113.758 40.1558C114.54 39.3741 115.445 39.7032 115.774 40.8553Z" fill="black"/>
<path d="M135.031 35.3423C134.907 35.6715 135.113 36.124 135.483 36.412C136.471 37.1115 136.512 43.6121 135.525 43.6121C135.154 43.6121 134.949 43.9001 135.031 44.3115C135.113 44.8875 135.648 45.0932 137.335 45.1755C139.269 45.299 139.474 45.2167 139.474 44.4761C139.474 43.9824 139.31 43.6121 139.063 43.6121C138.857 43.6121 138.651 43.2007 138.651 42.7069C138.651 41.9664 138.857 42.0487 140.133 43.5298C141.243 44.8464 141.902 45.2578 142.807 45.2578C143.712 45.2578 144 45.0521 144 44.435C144 43.9824 143.753 43.6121 143.465 43.6121C143.177 43.6121 142.519 43.0772 142.025 42.4189L141.161 41.2258L142.107 40.3618C142.601 39.9092 143.259 39.4978 143.506 39.4978C143.794 39.4978 144 39.1275 144 38.6749C144 37.9343 143.712 37.8521 141.737 37.8521C139.762 37.8521 139.474 37.9343 139.474 38.6749C139.474 39.1275 139.68 39.4978 139.927 39.4978C140.256 39.4978 140.256 39.7035 139.886 40.1149C138.939 41.2669 138.651 40.7321 138.651 37.7286V34.7252L136.965 34.7663C135.895 34.7663 135.154 34.972 135.031 35.3423Z" fill="black"/>
<path d="M48.877 35.9596C48.2187 36.4533 47.725 37.0705 47.725 37.3585C47.725 37.6465 47.5604 37.8522 47.3135 37.8522C47.1078 37.8522 46.9021 38.2225 46.9021 38.6751C46.9021 39.1276 47.1078 39.4979 47.3135 39.4979C47.5604 39.4979 47.725 40.5677 47.725 41.9254C47.725 44.6408 48.2598 45.3814 50.0701 45.1757C50.893 45.0934 51.2633 44.8054 51.3456 44.106C51.4278 43.4888 51.2633 43.2008 50.8518 43.2008C50.3581 43.2008 50.1935 42.7482 50.1935 41.3494C50.1935 39.9917 50.3581 39.4979 50.8107 39.4979C51.1398 39.4979 51.4278 39.1276 51.4278 38.6751C51.4278 38.2225 51.181 37.8522 50.8518 37.8522C50.4404 37.8522 50.1935 37.3174 50.1113 36.4533L49.9878 35.0545L48.877 35.9596Z" fill="black"/>
<path d="M9.91709 38.9218C7.85993 41.5549 9.46451 45.2578 12.6325 45.2578C14.1548 45.2578 16.0474 44.3527 16.0474 43.6121C16.0474 42.9538 14.484 42.7481 13.62 43.2829C13.0028 43.6532 12.5502 43.6944 12.0565 43.3652C10.4931 42.3778 10.9868 41.9664 13.7434 41.9664C15.2245 41.9664 16.4588 41.8018 16.4588 41.5961C16.4588 40.6498 15.4714 38.5926 14.8131 38.2635C14.4017 38.0166 13.2908 37.8521 12.3857 37.8521C11.1102 37.8521 10.5754 38.0989 9.91709 38.9218ZM13.7434 40.1149C13.908 40.6086 13.62 40.7321 12.468 40.7321C11.2337 40.7321 11.0691 40.6498 11.5217 40.1149C11.8097 39.7858 12.3445 39.4978 12.756 39.4978C13.1674 39.4978 13.5788 39.7858 13.7434 40.1149Z" fill="black"/>
<path d="M16.8701 38.7161C16.8701 39.1275 17.1581 39.4978 17.4873 39.4978C18.3513 39.4978 18.3513 43.1184 17.4873 43.4475C17.1581 43.6121 16.8701 44.0647 16.8701 44.4761C16.8701 45.1344 17.1993 45.2578 19.133 45.2578C21.0667 45.2578 21.3959 45.1344 21.3959 44.4761C21.3959 44.0647 21.1079 43.5709 20.7376 43.4475C20.285 43.2829 20.1616 42.7481 20.2439 41.6784C20.3261 40.4441 20.5319 40.1149 21.1901 40.1149C21.9307 40.1149 22.013 40.4441 22.1364 42.6658L22.2599 45.2578H23.8644C25.2222 45.2578 25.5102 45.0932 25.5102 44.4761C25.5102 44.0647 25.2222 43.5709 24.8519 43.4475C23.9467 43.1184 24.2347 40.1561 25.181 39.9915C25.757 39.8681 25.8805 40.2795 26.0039 42.4601L26.1273 45.0521L27.8965 45.1755C29.4188 45.299 29.6245 45.2167 29.6245 44.4761C29.6245 43.9824 29.3365 43.6121 29.0073 43.6121C28.5136 43.6121 28.3902 43.0772 28.3902 41.2258C28.3902 39.9092 28.1845 38.6338 27.8965 38.3458C27.2793 37.7286 25.7159 37.6875 24.6873 38.2635C24.2347 38.5103 23.8233 38.5103 23.6999 38.3046C23.5764 38.0989 21.9719 37.9343 20.1616 37.9343C17.1581 37.8932 16.8701 37.9755 16.8701 38.7161Z" fill="black"/>
<path d="M31.0626 38.8802C29.6226 40.279 29.6226 42.8299 31.0626 44.2288C32.338 45.5454 34.8478 45.6276 36.2466 44.4345C37.1106 43.7351 37.1518 43.5705 36.6169 43.2002C35.8352 42.6653 35.0946 42.6653 34.7655 43.2002C34.3129 43.8996 32.9552 43.6528 32.5026 42.7888C32.0912 42.007 32.1735 41.9659 34.7655 41.9659C36.2466 41.9659 37.4398 41.8013 37.4398 41.5956C37.4398 40.6493 36.4524 38.5922 35.7941 38.263C34.3541 37.4813 32.1323 37.7693 31.0626 38.8802ZM34.7243 40.1145C34.8889 40.567 34.6421 40.7316 33.7369 40.7316C32.5438 40.7316 32.1735 40.3613 32.7906 39.7853C33.2843 39.2916 34.4775 39.4973 34.7243 40.1145Z" fill="black"/>
<path d="M37.8498 38.7161C37.8498 39.1275 38.1378 39.4978 38.4669 39.4978C38.9195 39.4978 39.0841 39.9915 39.0841 41.5549C39.0841 43.1184 38.9195 43.6121 38.4669 43.6121C38.1378 43.6121 37.8498 43.9824 37.8498 44.435C37.8498 45.1755 38.1378 45.2578 40.1127 45.2578C42.0464 45.2578 42.3755 45.1344 42.3755 44.4761C42.3755 44.0647 42.0875 43.5709 41.7172 43.4475C41.2647 43.2829 41.1412 42.7481 41.2235 41.6784C41.3058 40.4029 41.5115 40.0738 42.2932 39.9915C43.1573 39.8681 43.1984 39.9915 43.1984 42.5424V45.2578H44.8441C46.2018 45.2578 46.4898 45.1344 46.4898 44.435C46.4898 43.9824 46.3253 43.6121 46.0784 43.6121C45.8727 43.6121 45.667 42.7892 45.667 41.8018C45.667 40.7732 45.5024 39.4978 45.2967 38.9629C44.9264 37.9755 44.7207 37.9343 41.3881 37.9343C38.1789 37.8932 37.8498 37.9755 37.8498 38.7161Z" fill="black"/>
<path d="M51.8391 38.6749C51.8391 39.1275 52.0036 39.4978 52.2093 39.4978C52.4562 39.4978 53.0322 40.7732 53.5259 42.3778C54.3899 45.011 54.5545 45.2578 55.5831 45.2578C56.5705 45.2578 56.7351 45.0521 57.1877 43.1595C57.7637 40.8144 58.0105 40.8555 58.6277 43.3241C59.0391 44.8464 59.2037 45.0521 60.2322 45.0521C61.3431 45.0521 61.4665 44.8464 62.2483 42.2544C62.742 40.6086 63.2768 39.4978 63.606 39.4978C63.9351 39.4978 64.182 39.1275 64.182 38.6749C64.182 37.9755 63.894 37.8521 62.3305 37.8521C60.7671 37.8521 60.4791 37.9755 60.4791 38.6338C60.4791 39.0863 60.6437 39.4978 60.8494 39.5801C61.3431 39.7446 60.9317 41.9664 60.438 41.9664C60.2322 41.9664 60.0677 41.7195 60.0677 41.4315C60.0677 41.1846 59.862 40.2384 59.6151 39.3743C59.2448 38.0166 59.0391 37.8109 58.1339 37.9343C57.2288 38.0166 56.9408 38.4281 56.3648 40.1149C55.7065 42.0075 55.6242 42.0898 55.3774 41.1435C55.2128 40.5675 55.2951 39.5801 55.5008 38.9629L55.9534 37.8521H53.8962C52.1271 37.8521 51.8391 37.9755 51.8391 38.6749Z" fill="black"/>
<path d="M65.4164 38.6749C62.9478 41.1435 64.4701 45.2578 67.8438 45.2578C68.8313 45.2578 69.8187 44.9287 70.5593 44.3527L71.7113 43.4475L70.7238 43.1184C70.1067 42.8715 69.4484 42.9127 68.8313 43.2418C67.7615 43.8178 66.6507 43.4887 66.6507 42.5835C66.6507 42.0898 67.1855 41.9664 69.1604 41.9664H71.7113L71.4233 40.6086C71.2998 39.9092 70.765 38.9629 70.3124 38.5515C69.1193 37.5641 66.445 37.6463 65.4164 38.6749ZM69.037 40.1972C69.1193 40.5675 68.749 40.7321 67.9261 40.7321C66.6918 40.7321 66.3215 40.3618 66.9387 39.7446C67.3912 39.3332 68.8313 39.6212 69.037 40.1972Z" fill="black"/>
<path d="M72.2902 38.6749C72.4137 39.1275 72.6605 39.4978 72.8662 39.4978C73.072 39.4978 73.2365 40.4029 73.2365 41.5549C73.2365 43.0361 73.072 43.6121 72.6605 43.6121C72.2902 43.6121 72.1668 43.9001 72.2902 44.435C72.496 45.1344 72.8662 45.2578 74.7177 45.2578C76.6514 45.2578 76.9394 45.1755 76.9394 44.435C76.9394 43.9824 76.6514 43.6121 76.3223 43.6121C75.9108 43.6121 75.7051 43.2007 75.7051 42.4189C75.7051 41.1024 76.6103 39.9092 77.5977 39.9092C77.9268 39.9092 78.1737 39.4978 78.1737 38.8806C78.1737 37.6463 77.1863 37.5229 76.0343 38.5515C75.3348 39.1686 75.2937 39.1686 75.2937 38.5515C75.2937 38.0166 74.9234 37.8521 73.6891 37.8521C72.2902 37.8521 72.1257 37.9755 72.2902 38.6749Z" fill="black"/>
<path d="M101.211 38.6749C101.211 39.1274 101.417 39.4977 101.622 39.4977C101.869 39.4977 102.034 40.444 102.034 41.596C102.034 44.9286 102.322 45.1755 106.148 45.1755C109.152 45.2166 109.44 45.1343 109.44 44.3938C109.44 43.9823 109.275 43.612 109.028 43.612C108.781 43.612 108.617 42.3777 108.617 40.732V37.852H106.971C105.613 37.852 105.325 37.9754 105.325 38.6749C105.325 39.1274 105.531 39.4977 105.778 39.4977C106.025 39.4977 106.148 40.1972 106.066 41.2257C105.984 42.5012 105.737 43.036 105.243 43.1183C104.585 43.2417 104.502 42.9126 104.502 40.5674V37.852H102.857C101.499 37.852 101.211 37.9754 101.211 38.6749Z" fill="black"/>
<path d="M120.138 38.675C118.574 40.2384 118.574 42.8716 120.138 44.435C121.331 45.6282 123.882 45.5459 125.322 44.2704L126.474 43.3242L125.569 42.995C124.993 42.8304 124.375 42.9127 124.046 43.2007C123.265 43.859 121.372 43.3653 121.372 42.5836C121.372 42.0899 121.948 41.9664 123.841 41.9664C126.145 41.9664 126.309 41.9253 126.309 40.979C126.309 40.4441 125.939 39.539 125.445 38.9218C124.746 38.0578 124.252 37.8521 122.771 37.8521C121.537 37.8521 120.714 38.099 120.138 38.675ZM123.758 40.1973C123.841 40.5676 123.47 40.7321 122.647 40.7321C121.413 40.7321 121.043 40.3618 121.66 39.7447C122.113 39.3333 123.553 39.6213 123.758 40.1973Z" fill="black"/>
<path d="M128.161 38.881C127.009 39.9919 126.762 42.5016 127.667 43.6536C128.983 45.3816 131.74 45.7519 133.468 44.3942C134.785 43.3656 134.826 43.0365 133.55 42.4604C132.727 42.0902 132.522 42.1313 132.316 42.625C132.151 43.0365 131.658 43.201 130.958 43.1187C129.93 42.9953 129.806 42.8307 129.806 41.5553C129.806 40.3622 129.971 40.0741 130.753 39.9919C131.287 39.9096 132.069 40.1564 132.481 40.5267C133.633 41.5553 134.538 41.0204 134.538 39.2924V37.8524H131.863C129.518 37.8524 129.025 37.9759 128.161 38.881Z" fill="black"/>
</svg>
